<?xml version="1.0" encoding="UTF-8" standalone="no"?>
<!DOCTYPE svg PUBLIC "-//W3C//DTD SVG 1.1//EN"
 "http://www.w3.org/Graphics/SVG/1.1/DTD/svg11.dtd">
<!-- Generated by graphviz version 2.43.0 (0)
 -->
<!-- Title: CFG Pages: 1 -->
<svg width="134pt" height="188pt"
 viewBox="0.00 0.00 134.00 188.00" xmlns="http://www.w3.org/2000/svg" xmlns:xlink="http://www.w3.org/1999/xlink">
<g id="graph0" class="graph" transform="scale(1 1) rotate(0) translate(4 184)">
<title>CFG</title>
<polygon fill="white" stroke="transparent" points="-4,4 -4,-184 130,-184 130,4 -4,4"/>
<!-- bb_0x565170415f10 -->
<g id="node1" class="node">
<title>bb_0x565170415f10</title>
<polygon fill="none" stroke="black" points="126,-180 72,-180 72,-144 126,-144 126,-180"/>
<text text-anchor="middle" x="99" y="-158.3" font-family="Times,serif" font-size="14.00">init</text>
</g>
<!-- bb_0x565170415fb0 -->
<g id="node2" class="node">
<title>bb_0x565170415fb0</title>
<polygon fill="none" stroke="black" points="126,-108 72,-108 72,-72 126,-72 126,-108"/>
<text text-anchor="middle" x="99" y="-86.3" font-family="Times,serif" font-size="14.00">cond</text>
</g>
<!-- bb_0x565170415f10&#45;&gt;bb_0x565170415fb0 -->
<g id="edge1" class="edge">
<title>bb_0x565170415f10&#45;&gt;bb_0x565170415fb0</title>
<path fill="none" stroke="black" d="M99,-143.7C99,-135.98 99,-126.71 99,-118.11"/>
<polygon fill="black" stroke="black" points="102.5,-118.1 99,-108.1 95.5,-118.1 102.5,-118.1"/>
</g>
<!-- bb_0x5651704160f0 -->
<g id="node3" class="node">
<title>bb_0x5651704160f0</title>
<polygon fill="none" stroke="black" points="54,-36 0,-36 0,0 54,0 54,-36"/>
<text text-anchor="middle" x="27" y="-14.3" font-family="Times,serif" font-size="14.00">ret</text>
</g>
<!-- bb_0x565170415fb0&#45;&gt;bb_0x5651704160f0 -->
<g id="edge2" class="edge">
<title>bb_0x565170415fb0&#45;&gt;bb_0x5651704160f0</title>
<path fill="none" stroke="black" d="M81.2,-71.7C72.4,-63.14 61.62,-52.66 52,-43.3"/>
<polygon fill="black" stroke="black" points="54.2,-40.57 44.59,-36.1 49.32,-45.58 54.2,-40.57"/>
</g>
<!-- bb_0x565170416050 -->
<g id="node4" class="node">
<title>bb_0x565170416050</title>
<polygon fill="none" stroke="black" points="126,-36 72,-36 72,0 126,0 126,-36"/>
<text text-anchor="middle" x="99" y="-14.3" font-family="Times,serif" font-size="14.00">loop</text>
</g>
<!-- bb_0x565170415fb0&#45;&gt;bb_0x565170416050 -->
<g id="edge3" class="edge">
<title>bb_0x565170415fb0&#45;&gt;bb_0x565170416050</title>
<path fill="none" stroke="black" d="M93.08,-71.7C92.29,-63.98 92.06,-54.71 92.4,-46.11"/>
<polygon fill="black" stroke="black" points="95.9,-46.32 93.1,-36.1 88.92,-45.84 95.9,-46.32"/>
</g>
<!-- bb_0x565170416050&#45;&gt;bb_0x565170415fb0 -->
<g id="edge4" class="edge">
<title>bb_0x565170416050&#45;&gt;bb_0x565170415fb0</title>
<path fill="none" stroke="black" d="M104.9,-36.1C105.7,-43.79 105.94,-53.05 105.6,-61.67"/>
<polygon fill="black" stroke="black" points="102.11,-61.48 104.92,-71.7 109.09,-61.96 102.11,-61.48"/>
</g>
</g>
</svg>
